<?xml version="1.0" encoding="iso-8859-1"?><!-- Generator: Adobe Illustrator 19.0.0, SVG Export Plug-In . SVG Version: 6.00 Build 0)  --><svg xmlns="http://www.w3.org/2000/svg" xmlns:xlink="http://www.w3.org/1999/xlink" version="1.1" id="Layer_1" x="0px" y="0px" viewBox="0 0 512 512" style="enable-background:new 0 0 512 512;" xml:space="preserve">
<path style="fill:#9A7BD6;" d="M8.084,132.548v312.589h215.579l1.138,2.275c5.909,11.817,17.987,19.282,31.199,19.282l0,0  c13.212,0,25.291-7.464,31.199-19.282l1.138-2.275h215.579V132.548C503.916,132.548,8.084,132.548,8.084,132.548z"/>
<g>
	<path style="fill:#FFFFFF;" d="M191.326,110.99c35.718,0,64.674,28.955,64.674,64.674V412.8H40.421V110.99   C40.421,110.99,191.326,110.99,191.326,110.99z"/>
	<path style="fill:#FFFFFF;" d="M256,412.8h215.579V110.99H320.674c-35.718,0-64.674,28.955-64.674,64.674V412.8z"/>
</g>
<g>
	<path style="fill:#E0E0E2;" d="M256,175.663c0-35.718-28.955-64.674-64.674-64.674H83.537v180.847l19.03,2.246   c15.184,1.793,42.483,5.455,51.097,7.651c32.214,8.212,55.804,27.216,68.91,54.44c-9.263-5.123-19.912-8.048-31.248-8.048H40.42   V412.8h215.579l0,0C256,401.016,256,175.663,256,175.663z"/>
	<path style="fill:#E0E0E2;" d="M320.674,348.127c-11.784,0-22.822,3.167-32.337,8.674V119.664   c-19.326,11.184-32.337,32.065-32.337,56c0,0,0,233.462,0,237.137l0,0h215.579v-64.674H320.674z"/>
</g>
<path style="fill:#FFFFFF;" d="M158.989,54.485c-13.205-3.366-53.895-8.169-53.895-8.169v226.358c0,0,40.689,4.803,53.895,8.169  C221.586,296.8,256,348.127,256,412.799V186.441C256,121.769,221.586,70.443,158.989,54.485z"/>
<path d="M493.137,124.463v16.168h2.695v296.421H283.341l-3.372,6.744c-4.569,9.137-13.753,14.814-23.968,14.814  c-10.215,0-19.4-5.676-23.968-14.814l-3.372-6.744H16.168V140.632h2.695v-16.168H0v328.758h218.746  c7.654,13.359,21.71,21.558,37.255,21.558s29.601-8.198,37.255-21.558H512V124.463C512,124.463,493.137,124.463,493.137,124.463z"/>
<path d="M256,420.884h223.663v-80.842V102.906H320.674c-26.924,0-50.461,14.711-63.043,36.506  c-4.466-15.391-11.197-29.521-20.093-41.927c-17.977-25.071-44.449-42.648-76.552-50.832c-13.567-3.458-53.261-8.166-54.944-8.364  l-9.032-1.067v242.638l7.137,0.843c0.402,0.047,40.304,4.778,52.846,7.975c54.474,13.887,87.921,56.978,90.71,116.039H48.505  v-16.168h142.821v-16.168H48.505v-16.168h164.379v-16.168H48.505V119.074h35.032v-16.168h-51.2v237.137v8.084v72.758h215.579H256z   M264.66,404.716c3.934-27.388,27.554-48.505,56.014-48.505h142.821v16.168H320.674v16.168h142.821v16.168H264.66z M320.674,119.074  h142.821v220.968H320.674c-22.837,0-43.241,10.585-56.589,27.097V175.663C264.084,144.459,289.47,119.074,320.674,119.074z   M160.987,273.01c-10.244-2.612-35.383-5.935-47.808-7.491V55.46c12.626,1.603,34.991,4.611,43.813,6.86  c56.933,14.514,90.924,60.915,90.924,124.123v154.589c-3.052-6.027-6.498-11.779-10.377-17.189  C219.561,298.772,193.09,281.194,160.987,273.01z"/>
<rect x="299.116" y="156.801" width="32.337" height="16.168"/>
<rect x="353.01" y="156.801" width="86.232" height="16.168"/>
<rect x="299.116" y="189.138" width="97.011" height="16.168"/>
<rect x="417.684" y="189.138" width="21.558" height="16.168"/>
<rect x="342.232" y="253.812" width="97.011" height="16.168"/>
<rect x="299.116" y="253.812" width="21.558" height="16.168"/>
<rect x="299.116" y="221.475" width="53.895" height="16.168"/>
<rect x="374.568" y="221.475" width="21.558" height="16.168"/>
<rect x="417.684" y="221.475" width="21.558" height="16.168"/>
<rect x="299.116" y="286.149" width="140.126" height="16.168"/>
<g>
</g>
<g>
</g>
<g>
</g>
<g>
</g>
<g>
</g>
<g>
</g>
<g>
</g>
<g>
</g>
<g>
</g>
<g>
</g>
<g>
</g>
<g>
</g>
<g>
</g>
<g>
</g>
<g>
</g>
</svg>