<?xml version="1.0" encoding="iso-8859-1"?><!-- Generator: Adobe Illustrator 19.0.0, SVG Export Plug-In . SVG Version: 6.00 Build 0)  --><svg xmlns="http://www.w3.org/2000/svg" xmlns:xlink="http://www.w3.org/1999/xlink" version="1.1" id="Layer_1" x="0px" y="0px" viewBox="0 0 512 512" style="enable-background:new 0 0 512 512;" xml:space="preserve">
<g>
	<circle style="fill:#6DBEC4;" cx="256" cy="256" r="256"/>
	<g>
		<path style="fill:#FFFFFF;" d="M275.692,337.23c-8.043,0-15.197,3.878-19.692,9.862c-4.495-5.984-11.649-9.862-19.692-9.862    h-113.23V150.154h113.23c8.043,0,15.197,3.877,19.692,9.861c4.495-5.984,11.649-9.861,19.692-9.861h113.23V337.23H275.692z"/>
		<g>
			<path style="fill:#6DBEC4;" d="M256,333.142l-0.984-1.31c-4.473-5.955-11.292-9.37-18.708-9.37h-113.23V320h113.23     c7.672,0,14.764,3.304,19.692,9.12c4.929-5.816,12.021-9.12,19.692-9.12h113.23v2.462h-113.23c-7.416,0-14.235,3.415-18.708,9.37     L256,333.142z"/>
			<path style="fill:#6DBEC4;" d="M256,315.911l-0.984-1.311c-4.473-5.954-11.292-9.37-18.708-9.37h-113.23v-2.461h113.23     c7.672,0,14.764,3.304,19.692,9.12c4.929-5.816,12.021-9.12,19.692-9.12h113.23v2.461h-113.23c-7.416,0-14.235,3.416-18.708,9.37     L256,315.911z"/>
			<path style="fill:#6DBEC4;" d="M256,298.681l-0.984-1.311c-4.473-5.954-11.292-9.37-18.708-9.37h-113.23v-2.462h113.23     c7.672,0,14.764,3.305,19.692,9.12c4.929-5.815,12.021-9.12,19.692-9.12h113.23V288h-113.23c-7.416,0-14.235,3.416-18.708,9.37     L256,298.681z"/>
			<path style="fill:#6DBEC4;" d="M256,281.449l-0.984-1.31c-4.473-5.954-11.292-9.37-18.708-9.37h-113.23v-2.462h113.23     c7.672,0,14.764,3.304,19.692,9.12c4.929-5.816,12.021-9.12,19.692-9.12h113.23v2.462h-113.23c-7.416,0-14.235,3.416-18.708,9.37     L256,281.449z"/>
			<path style="fill:#6DBEC4;" d="M256,264.219l-0.984-1.311c-4.473-5.954-11.292-9.37-18.708-9.37h-113.23v-2.461h113.23     c7.672,0,14.764,3.304,19.692,9.12c4.929-5.816,12.021-9.12,19.692-9.12h113.23v2.461h-113.23c-7.416,0-14.235,3.416-18.708,9.37     L256,264.219z"/>
			<path style="fill:#6DBEC4;" d="M256,246.988l-0.984-1.311c-4.473-5.954-11.292-9.37-18.708-9.37h-113.23v-2.462h113.23     c7.672,0,14.764,3.305,19.692,9.121c4.929-5.816,12.021-9.121,19.692-9.121h113.23v2.462h-113.23     c-7.416,0-14.235,3.416-18.708,9.37L256,246.988z"/>
			<path style="fill:#6DBEC4;" d="M256,229.757l-0.984-1.31c-4.473-5.954-11.292-9.37-18.708-9.37h-113.23v-2.462h113.23     c7.672,0,14.764,3.305,19.692,9.12c4.929-5.815,12.021-9.12,19.692-9.12h113.23v2.462h-113.23c-7.416,0-14.235,3.416-18.708,9.37     L256,229.757z"/>
			<path style="fill:#6DBEC4;" d="M256,212.526l-0.984-1.31c-4.473-5.955-11.292-9.371-18.708-9.371h-113.23v-2.461h113.23     c7.672,0,14.764,3.304,19.692,9.12c4.929-5.816,12.021-9.12,19.692-9.12h113.23v2.461h-113.23     c-7.416,0-14.235,3.416-18.708,9.371L256,212.526z"/>
			<path style="fill:#6DBEC4;" d="M256,195.296l-0.984-1.311c-4.473-5.954-11.292-9.37-18.708-9.37h-113.23v-2.461h113.23     c7.672,0,14.764,3.304,19.692,9.12c4.929-5.816,12.021-9.12,19.692-9.12h113.23v2.461h-113.23c-7.416,0-14.235,3.416-18.708,9.37     L256,195.296z"/>
			<path style="fill:#6DBEC4;" d="M256,178.064l-0.984-1.31c-4.473-5.954-11.292-9.37-18.708-9.37h-113.23v-2.462h113.23     c7.672,0,14.764,3.305,19.692,9.12c4.929-5.815,12.021-9.12,19.692-9.12h113.23v2.462h-113.23c-7.416,0-14.235,3.416-18.708,9.37     L256,178.064z"/>
		</g>
		<path style="fill:#242C3C;" d="M123.077,337.23h113.23c8.043,0,15.197,3.878,19.692,9.862c4.495-5.984,11.649-9.862,19.692-9.862    h113.23v9.847h-113.23c-8.145,0-14.77,6.625-14.77,14.769h-9.846c0-8.144-6.625-14.769-14.77-14.769h-113.23v-9.847H123.077z"/>
		<rect x="361.85" y="150.15" style="fill:#E36A5C;" width="4.924" height="187.08"/>
		<rect x="150.15" y="150.15" style="fill:#E36A5C;" width="4.923" height="187.08"/>
	</g>
</g>
<g>
</g>
<g>
</g>
<g>
</g>
<g>
</g>
<g>
</g>
<g>
</g>
<g>
</g>
<g>
</g>
<g>
</g>
<g>
</g>
<g>
</g>
<g>
</g>
<g>
</g>
<g>
</g>
<g>
</g>
</svg>