<?xml version="1.0" encoding="iso-8859-1"?><!-- Generator: Adobe Illustrator 19.0.0, SVG Export Plug-In . SVG Version: 6.00 Build 0)  --><svg xmlns="http://www.w3.org/2000/svg" xmlns:xlink="http://www.w3.org/1999/xlink" version="1.1" id="Layer_1" x="0px" y="0px" viewBox="0 0 512 512" style="enable-background:new 0 0 512 512;" xml:space="preserve">
<g>
	<circle style="fill:#E36A5C;" cx="256" cy="256" r="256"/>
	<circle style="fill:#E36A5C;" cx="256" cy="256" r="256"/>
	<g>
		<circle style="fill:#F2BB64;" cx="118.15" cy="384" r="9.846"/>
		<rect x="364.31" y="118.15" style="fill:#F2BB64;" width="39.38" height="275.69"/>
		<rect x="108.31" y="187.08" style="fill:#242C3C;" width="19.692" height="196.92"/>
		<g>
			<polygon style="fill:#F2BB64;" points="115.692,157.538 108.308,187.077 128,187.077 120.615,157.538    "/>
			<polygon style="fill:#242C3C;" points="118.154,147.692 115.692,157.538 120.615,157.538    "/>
		</g>
		<g>
			<rect x="393.85" y="381.54" style="fill:#FFFFFF;" width="9.847" height="4.924"/>
			<rect x="393.85" y="361.85" style="fill:#FFFFFF;" width="9.847" height="4.924"/>
			<rect x="393.85" y="342.15" style="fill:#FFFFFF;" width="9.847" height="4.923"/>
			<rect x="393.85" y="322.46" style="fill:#FFFFFF;" width="9.847" height="4.923"/>
			<rect x="393.85" y="302.77" style="fill:#FFFFFF;" width="9.847" height="4.923"/>
			<rect x="393.85" y="283.08" style="fill:#FFFFFF;" width="9.847" height="4.923"/>
			<rect x="393.85" y="263.38" style="fill:#FFFFFF;" width="9.847" height="4.923"/>
			<rect x="393.85" y="243.69" style="fill:#FFFFFF;" width="9.847" height="4.923"/>
			<rect x="393.85" y="224" style="fill:#FFFFFF;" width="9.847" height="4.923"/>
			<rect x="393.85" y="204.31" style="fill:#FFFFFF;" width="9.847" height="4.923"/>
			<rect x="393.85" y="184.62" style="fill:#FFFFFF;" width="9.847" height="4.923"/>
			<rect x="393.85" y="164.92" style="fill:#FFFFFF;" width="9.847" height="4.923"/>
			<rect x="393.85" y="145.23" style="fill:#FFFFFF;" width="9.847" height="4.924"/>
			<rect x="393.85" y="125.54" style="fill:#FFFFFF;" width="9.847" height="4.924"/>
		</g>
		<g>
			<polygon style="fill:#2F4250;" points="147.692,118.154 147.692,137.846 147.692,142.77 344.615,142.77 344.615,137.846      344.615,118.154    "/>
			<rect x="147.69" y="140.31" style="fill:#FFFFFF;" width="196.92" height="253.54"/>
			<rect x="147.69" y="118.15" style="fill:#242C3C;" width="196.92" height="19.691"/>
			<g>
				<rect x="147.69" y="372.92" style="fill:#6DBEC4;" width="196.92" height="2.462"/>
				<rect x="147.69" y="353.23" style="fill:#6DBEC4;" width="196.92" height="2.462"/>
				<rect x="147.69" y="333.54" style="fill:#6DBEC4;" width="196.92" height="2.462"/>
				<rect x="147.69" y="313.85" style="fill:#6DBEC4;" width="196.92" height="2.462"/>
				<rect x="147.69" y="294.15" style="fill:#6DBEC4;" width="196.92" height="2.461"/>
				<rect x="147.69" y="274.46" style="fill:#6DBEC4;" width="196.92" height="2.461"/>
				<rect x="147.69" y="254.77" style="fill:#6DBEC4;" width="196.92" height="2.461"/>
				<rect x="147.69" y="235.08" style="fill:#6DBEC4;" width="196.92" height="2.461"/>
				<rect x="147.69" y="215.38" style="fill:#6DBEC4;" width="196.92" height="2.461"/>
				<rect x="147.69" y="195.69" style="fill:#6DBEC4;" width="196.92" height="2.462"/>
				<rect x="147.69" y="176" style="fill:#6DBEC4;" width="196.92" height="2.462"/>
				<rect x="147.69" y="156.31" style="fill:#6DBEC4;" width="196.92" height="2.462"/>
			</g>
			<rect x="169.85" y="137.85" style="fill:#E36A5C;" width="4.924" height="256"/>
			<rect x="147.69" y="137.85" style="fill:#2F4250;" width="196.92" height="4.924"/>
		</g>
	</g>
</g>
<g>
</g>
<g>
</g>
<g>
</g>
<g>
</g>
<g>
</g>
<g>
</g>
<g>
</g>
<g>
</g>
<g>
</g>
<g>
</g>
<g>
</g>
<g>
</g>
<g>
</g>
<g>
</g>
<g>
</g>
</svg>