<?xml version="1.0" encoding="iso-8859-1"?><!-- Generator: Adobe Illustrator 19.0.0, SVG Export Plug-In . SVG Version: 6.00 Build 0)  --><svg xmlns="http://www.w3.org/2000/svg" xmlns:xlink="http://www.w3.org/1999/xlink" version="1.1" id="Layer_1" x="0px" y="0px" viewBox="0 0 512 512" style="enable-background:new 0 0 512 512;" xml:space="preserve">
<circle style="fill:#FF5722;" cx="256" cy="256" r="256"/>
<rect x="125.673" y="144.291" style="fill:#FFC7B2;" width="260.655" height="204.8"/>
<rect x="144.291" y="162.909" style="fill:#D22600;" width="223.418" height="186.182"/>
<polygon style="fill:#FFE4DE;" points="125.673,144.291 144.291,162.909 367.709,162.909 386.327,144.291 "/>
<polygon style="fill:#FF2F00;" points="367.709,162.909 144.291,162.909 144.291,349.091 182.747,349.091 367.709,164.129 "/>
<rect x="107.055" y="349.091" style="fill:#7A1C05;" width="297.891" height="27.927"/>
<path style="fill:#FFFFFF;" d="M218.764,330.473c0-5.139-4.17-9.309-9.309-9.309h-37.236c-5.143,0-9.309,4.17-9.309,9.309v18.618  h55.855V330.473z"/>
<path style="fill:#AC2200;" d="M349.091,344.436c0,2.565-2.09,4.655-4.655,4.655h-27.927c-2.565,0-4.655-2.09-4.655-4.655l0,0  c0-2.555,2.09-4.655,4.655-4.655h27.927C347.001,339.782,349.091,341.881,349.091,344.436L349.091,344.436z"/>
<g>
	<path style="fill:#FFFFFF;" d="M175.672,248.399l18.735-42.305c1.299-2.918,3.682-4.682,6.907-4.682h0.694   c3.216,0,5.53,1.764,6.828,4.682l18.735,42.305c0.382,0.847,0.61,1.62,0.61,2.383c0,3.146-2.453,5.683-5.599,5.683   c-2.765,0-4.608-1.62-5.683-4.073l-3.607-8.443h-23.645l-3.766,8.825c-1.001,2.309-2.993,3.691-5.455,3.691   c-3.063,0-5.446-2.458-5.446-5.53C174.983,250.089,175.29,249.246,175.672,248.399z M208.919,233.505l-7.457-17.734l-7.447,17.734   H208.919z"/>
	<path style="fill:#FFFFFF;" d="M237.466,208.17c0-3.3,2.611-5.916,5.916-5.916h19.037c6.144,0,10.98,1.69,14.057,4.766   c2.453,2.448,3.682,5.45,3.682,9.132v0.154c0,6.065-3.226,9.439-7.066,11.59c6.218,2.383,10.054,5.99,10.054,13.21v0.144   c0,9.83-7.983,14.746-20.108,14.746h-19.656c-3.309,0-5.916-2.611-5.916-5.911V208.17z M259.882,223.981   c5.227,0,8.527-1.685,8.527-5.683v-0.149c0-3.528-2.765-5.525-7.754-5.525h-11.674v11.352h10.901V223.981z M263.038,245.634   c5.218,0,8.364-1.843,8.364-5.837v-0.154c0-3.607-2.681-5.837-8.755-5.837h-13.666v11.827L263.038,245.634L263.038,245.634z"/>
	<path style="fill:#FFFFFF;" d="M290.509,229.288v-0.154c0-15.281,11.52-27.797,28.025-27.797c8.052,0,13.508,2.15,17.962,5.45   c1.229,0.922,2.299,2.616,2.299,4.687c0,3.221-2.611,5.753-5.837,5.753c-1.61,0-2.681-0.614-3.528-1.15   c-3.3-2.458-6.754-3.84-10.98-3.84c-9.053,0-15.583,7.526-15.583,16.738v0.158c0,9.211,6.372,16.887,15.583,16.887   c4.99,0,8.29-1.531,11.674-4.222c0.917-0.768,2.146-1.303,3.528-1.303c3.002,0,5.53,2.458,5.53,5.455   c0,1.839-0.917,3.3-1.992,4.217c-4.836,4.226-10.519,6.754-19.116,6.754C302.257,256.917,290.509,244.713,290.509,229.288z"/>
</g>
<g>
</g>
<g>
</g>
<g>
</g>
<g>
</g>
<g>
</g>
<g>
</g>
<g>
</g>
<g>
</g>
<g>
</g>
<g>
</g>
<g>
</g>
<g>
</g>
<g>
</g>
<g>
</g>
<g>
</g>
</svg>