<?xml version="1.0" encoding="iso-8859-1"?><!-- Generator: Adobe Illustrator 19.0.0, SVG Export Plug-In . SVG Version: 6.00 Build 0)  --><svg xmlns="http://www.w3.org/2000/svg" xmlns:xlink="http://www.w3.org/1999/xlink" version="1.1" id="Layer_1" x="0px" y="0px" viewBox="0 0 512 512" style="enable-background:new 0 0 512 512;" xml:space="preserve">
<circle style="fill:#FF5722;" cx="256" cy="256" r="256"/>
<path style="fill:#FFE4DE;" d="M322.001,241.901l-47.383-78.992v-37.236h9.309c5.139,0,9.309-4.17,9.309-9.309  s-4.17-9.309-9.309-9.309h-55.855c-5.139,0-9.309,4.17-9.309,9.309s4.17,9.309,9.309,9.309h9.309v37.236l-47.383,78.992  c-1.722,2.881-1.769,6.47-0.14,9.402c1.676,2.886,4.748,4.701,8.099,4.701h116.084c3.351,0,6.423-1.815,8.099-4.701  C323.77,248.367,323.724,244.783,322.001,241.901z"/>
<g>
	<polygon style="fill:#DE5735;" points="334.131,283.927 310.858,283.927 358.4,404.945 381.673,404.945  "/>
	<polygon style="fill:#DE5735;" points="177.869,283.927 130.327,404.945 153.6,404.945 201.142,283.927  "/>
</g>
<path style="fill:#2C0900;" d="M144.291,279.273c0,2.574,2.085,4.655,4.655,4.655h214.109c2.569,0,4.655-2.081,4.655-4.655v-18.618  c0-2.569-2.085-4.655-4.655-4.655H148.945c-2.569,0-4.655,2.085-4.655,4.655V279.273z"/>
<path style="fill:#FFE4DE;" d="M302.545,395.636c0,5.139-4.17,9.309-9.309,9.309h-74.473c-5.139,0-9.309-4.17-9.309-9.309l0,0  c0-5.139,4.17-9.309,9.309-9.309h74.473C298.375,386.327,302.545,390.498,302.545,395.636L302.545,395.636z"/>
<path style="fill:#D22600;" d="M306.665,241.636c-1.271,2.183-3.598,3.561-6.139,3.561h-87.966c-2.537,0-4.869-1.378-6.139-3.561  c-1.233-2.23-1.196-4.943,0.107-7.126l18.977-31.637h62.078l18.977,31.637C307.866,236.698,307.898,239.411,306.665,241.636z"/>
<path style="fill:#AC2200;" d="M255.86,386.327c-15.514,0-31.032-10.347-31.032-31.027c0-20.689,31.032-36.203,25.861-62.064  C304.947,329.407,298.664,386.327,255.86,386.327z"/>
<path style="fill:#FF2F00;" d="M256.633,386.327c-6.893,0-13.791-4.599-13.791-13.791c0-9.197,13.791-16.081,11.492-27.583  C278.449,361.025,275.656,386.327,256.633,386.327z"/>
<path style="fill:#FFFFFF;" d="M256,107.055h-27.927c-5.139,0-9.309,4.17-9.309,9.309s4.17,9.309,9.309,9.309h9.309v37.236  l-47.383,78.992c-1.722,2.881-1.769,6.47-0.14,9.402c1.676,2.886,4.748,4.701,8.099,4.701H256V107.055z"/>
<path style="fill:#FF2F00;" d="M256.545,202.873h-31.037l-18.977,31.637c-1.303,2.188-1.34,4.901-0.107,7.126  c1.271,2.183,3.598,3.561,6.139,3.561h43.981V202.873L256.545,202.873z"/>
<path style="fill:#7A1C05;" d="M256,256H148.945c-2.569,0-4.655,2.085-4.655,4.655v18.618c0,2.574,2.085,4.655,4.655,4.655H256V256z  "/>
<g>
</g>
<g>
</g>
<g>
</g>
<g>
</g>
<g>
</g>
<g>
</g>
<g>
</g>
<g>
</g>
<g>
</g>
<g>
</g>
<g>
</g>
<g>
</g>
<g>
</g>
<g>
</g>
<g>
</g>
</svg>