<?xml version="1.0" encoding="iso-8859-1"?><!-- Generator: Adobe Illustrator 19.0.0, SVG Export Plug-In . SVG Version: 6.00 Build 0)  --><svg xmlns="http://www.w3.org/2000/svg" xmlns:xlink="http://www.w3.org/1999/xlink" version="1.1" id="Layer_1" x="0px" y="0px" viewBox="0 0 512 512" style="enable-background:new 0 0 512 512;" xml:space="preserve">
<g>
	<polygon style="fill:#808080;" points="429.154,137.308 76.028,137.308 75.959,118.572 429.154,118.572  "/>
	<polygon style="fill:#808080;" points="437.352,262.897 76.03,262.897 75.959,244.16 437.352,244.16  "/>
	<polygon style="fill:#808080;" points="436.029,393.416 75.985,393.416 75.959,374.68 436.029,374.68  "/>
</g>
<g>
	<path style="fill:#F7B239;" d="M375.278,384.048v17.576c0,14.228-11.534,25.762-25.762,25.762s-25.762-11.534-25.762-25.762   v-17.576v-17.553c0-7.108,2.88-13.548,7.541-18.221c4.661-4.661,11.101-7.541,18.221-7.541c14.228,0,25.762,11.534,25.762,25.762   V384.048z"/>
	<path style="fill:#F7B239;" d="M379.236,253.529v17.565c0,14.228-11.534,25.762-25.762,25.762   c-14.228,0-25.762-11.534-25.762-25.762v-17.565v-17.565c0-14.228,11.534-25.762,25.762-25.762c7.119,0,13.56,2.88,18.221,7.541   s7.541,11.101,7.541,18.221V253.529z"/>
	<path style="fill:#F7B239;" d="M276.914,127.939v17.565c0,14.239-11.534,25.762-25.762,25.762s-25.762-11.523-25.762-25.762   v-17.565v-17.565c0-14.228,11.534-25.762,25.762-25.762c7.119,0,13.56,2.88,18.221,7.541c4.661,4.673,7.541,11.112,7.541,18.221   V127.939z"/>
</g>
<g>
	<path style="fill:#F95428;" d="M286.61,384.048v17.576c0,14.228-11.534,25.762-25.762,25.762s-25.762-11.534-25.762-25.762v-17.576   v-17.553c0-7.108,2.88-13.548,7.541-18.221c4.661-4.661,11.101-7.541,18.221-7.541c14.228,0,25.762,11.534,25.762,25.762V384.048z"/>
	<path style="fill:#F95428;" d="M188.235,253.529v17.565c0,14.228-11.534,25.762-25.762,25.762   c-14.228,0-25.762-11.534-25.762-25.762v-17.565v-17.565c0-14.228,11.534-25.762,25.762-25.762c7.108,0,13.548,2.88,18.221,7.541   c4.661,4.661,7.541,11.101,7.541,18.221V253.529z"/>
	<path style="fill:#F95428;" d="M188.235,127.939v17.565c0,14.239-11.534,25.762-25.762,25.762   c-14.228,0-25.762-11.523-25.762-25.762v-17.565v-17.565c0-14.228,11.534-25.762,25.762-25.762c7.108,0,13.548,2.88,18.221,7.541   c4.661,4.673,7.541,11.112,7.541,18.221V127.939z"/>
</g>
<path style="fill:#E54728;" d="M151.504,145.505v-17.565v-17.565c0-11.656,7.744-21.5,18.365-24.679  c-2.344-0.701-4.826-1.083-7.397-1.083c-14.228,0-25.762,11.534-25.762,25.762v17.565v17.565c0,14.239,11.534,25.762,25.762,25.762  c2.572,0,5.053-0.382,7.397-1.082C159.247,167.007,151.504,157.17,151.504,145.505z"/>
<path style="fill:#E09B2D;" d="M240.184,145.505v-17.565v-17.565c0-11.656,7.744-21.5,18.365-24.679  c-2.344-0.701-4.826-1.083-7.397-1.083c-14.228,0-25.762,11.534-25.762,25.762v17.565v17.565c0,14.239,11.534,25.762,25.762,25.762  c2.572,0,5.053-0.382,7.397-1.082C247.927,167.007,240.184,157.17,240.184,145.505z"/>
<path style="fill:#E54728;" d="M151.504,271.094v-17.565v-17.565c0-11.656,7.744-21.5,18.365-24.679  c-2.344-0.701-4.826-1.083-7.397-1.083c-14.228,0-25.762,11.534-25.762,25.762v17.565v17.565c0,14.239,11.534,25.762,25.762,25.762  c2.572,0,5.053-0.382,7.397-1.082C159.247,292.597,151.504,282.759,151.504,271.094z"/>
<path style="fill:#E09B2D;" d="M342.505,271.094v-17.565v-17.565c0-11.656,7.744-21.5,18.365-24.679  c-2.344-0.701-4.826-1.083-7.397-1.083c-14.228,0-25.762,11.534-25.762,25.762v17.565v17.565c0,14.239,11.534,25.762,25.762,25.762  c2.572,0,5.053-0.382,7.397-1.082C350.248,292.597,342.505,282.759,342.505,271.094z"/>
<path style="fill:#E54728;" d="M249.879,401.625v-17.565v-17.565c0-11.656,7.744-21.5,18.365-24.679  c-2.344-0.701-4.826-1.083-7.397-1.083c-14.228,0-25.762,11.534-25.762,25.762v17.565v17.565c0,14.239,11.534,25.762,25.762,25.762  c2.572,0,5.053-0.381,7.397-1.082C257.623,423.127,249.879,413.29,249.879,401.625z"/>
<path style="fill:#E09B2D;" d="M338.547,401.625v-17.565v-17.565c0-11.656,7.744-21.5,18.365-24.679  c-2.344-0.701-4.826-1.083-7.397-1.083c-14.228,0-25.762,11.534-25.762,25.762v17.565v17.565c0,14.239,11.534,25.762,25.762,25.762  c2.572,0,5.053-0.381,7.397-1.082C346.291,423.127,338.547,413.29,338.547,401.625z"/>
<path style="fill:#F7B239;" d="M395.301,512H116.698c-29.964,0-54.342-24.378-54.342-54.343V54.342  C62.356,24.378,86.734,0,116.698,0h278.603c29.965,0,54.343,24.378,54.343,54.342v403.314C449.644,487.622,425.266,512,395.301,512z   M116.698,27.231c-14.949,0-27.111,12.162-27.111,27.111v403.314c0,14.949,12.162,27.112,27.111,27.112h278.603  c14.949,0,27.112-12.163,27.112-27.112V54.342c0-14.949-12.163-27.111-27.112-27.111H116.698z"/>
<g>
</g>
<g>
</g>
<g>
</g>
<g>
</g>
<g>
</g>
<g>
</g>
<g>
</g>
<g>
</g>
<g>
</g>
<g>
</g>
<g>
</g>
<g>
</g>
<g>
</g>
<g>
</g>
<g>
</g>
</svg>