<?xml version="1.0" encoding="iso-8859-1"?><!-- Generator: Adobe Illustrator 19.0.0, SVG Export Plug-In . SVG Version: 6.00 Build 0)  --><svg xmlns="http://www.w3.org/2000/svg" xmlns:xlink="http://www.w3.org/1999/xlink" version="1.1" id="Layer_1" x="0px" y="0px" viewBox="0 0 512 512" style="enable-background:new 0 0 512 512;" xml:space="preserve">
<path style="fill:#CCCCCC;" d="M476.874,110.974v281.41H35.114v-281.41c0-17.7,14.346-32.046,32.046-32.046h377.668  C462.528,78.928,476.874,93.274,476.874,110.974z"/>
<path style="fill:#666666;" d="M444.828,90.863H67.16c-0.81,0-1.604,0.062-2.389,0.155c-9.964,1.188-17.722,9.677-17.722,19.956  v269.475h10.742h407.148V110.974C464.939,99.886,455.916,90.863,444.828,90.863z"/>
<path style="fill:#565656;" d="M83.071,91.019c0.785-0.093,1.579-0.155,2.389-0.155h-18.3c-0.81,0-1.604,0.062-2.389,0.155  c-9.964,1.188-17.722,9.677-17.722,19.956v269.475h10.742h7.559V110.974C65.349,100.696,73.107,92.206,83.071,91.019z"/>
<path style="fill:#E6E6E6;" d="M512,377.895v25.112c0,16.602-13.463,30.065-30.065,30.065H30.053  C13.451,433.072,0,419.609,0,403.007v-25.112H512z"/>
<path style="fill:#CCCCCC;" d="M22.28,403.007v-25.112H0v25.112c0,16.602,13.451,30.065,30.053,30.065h22.28  C35.731,433.072,22.28,419.609,22.28,403.007z"/>
<g>
	<path style="fill:#E6E6E6;" d="M135.708,176.495c3.626,0,6.564-2.938,6.564-6.564s-2.938-6.564-6.564-6.564h-32.564   c-3.626,0-6.564,2.938-6.564,6.564v116.966c0,3.626,2.938,6.564,6.564,6.564h32.564c3.626,0,6.564-2.938,6.564-6.564   c0-3.626-2.938-6.564-6.564-6.564h-26v-45.354h17.285c3.626,0,6.564-2.938,6.564-6.564s-2.938-6.564-6.564-6.564h-17.285v-45.354   H135.708z"/>
	<path style="fill:#E6E6E6;" d="M197.513,255.079h-31.899c-3.626,0-6.564,2.938-6.564,6.564c0,3.626,2.938,6.564,6.564,6.564h31.899   c3.626,0,6.564-2.938,6.564-6.564C204.078,258.017,201.138,255.079,197.513,255.079z"/>
	<path style="fill:#E6E6E6;" d="M197.513,213.21h-31.899c-3.626,0-6.564,2.938-6.564,6.564s2.938,6.564,6.564,6.564h31.899   c3.626,0,6.564-2.938,6.564-6.564S201.138,213.21,197.513,213.21z"/>
	<path style="fill:#E6E6E6;" d="M307.834,202.662c-9.693,0-18.336,4.551-23.924,11.624c-5.588-7.072-14.233-11.624-23.924-11.624   c-6.447,0-12.429,2.017-17.36,5.446v-2.868c0-3.626-2.938-6.564-6.564-6.564s-6.564,2.938-6.564,6.564v27.912v53.746   c0,3.626,2.938,6.564,6.564,6.564s6.564-2.938,6.564-6.564v-53.746c0-9.573,7.788-17.36,17.36-17.36   c9.572,0,17.36,7.788,17.36,17.36v53.746c0,3.626,2.938,6.564,6.564,6.564c3.626,0,6.564-2.938,6.564-6.564v-53.746   c0-9.573,7.788-17.36,17.36-17.36c9.572,0,17.36,7.788,17.36,17.36v53.746c0,3.626,2.938,6.564,6.564,6.564   s6.564-2.938,6.564-6.564v-53.746C338.322,216.339,324.646,202.662,307.834,202.662z"/>
	<path style="fill:#E6E6E6;" d="M392.565,280.332h-6.683c-5.888,0-10.678-4.791-10.678-10.678v-43.185   c0-5.888,4.791-10.678,10.678-10.678h6.683c3.626,0,6.564-2.938,6.564-6.564c0-3.626-2.938-6.564-6.564-6.564h-6.683   c-13.128,0-23.807,10.68-23.807,23.807v43.185c0,13.128,10.68,23.807,23.807,23.807h6.683c3.626,0,6.564-2.938,6.564-6.564   C399.129,283.271,396.191,280.332,392.565,280.332z"/>
	<path style="fill:#E6E6E6;" d="M440.997,210.968H418.84c-2.637,0-4.774-2.138-4.774-4.774c0-8.624,3.767-16.776,10.335-22.366   l5.065-4.311c4.294-3.655,6.757-8.984,6.757-14.622c0-3.477-2.827-6.304-6.304-6.304s-6.304,2.827-6.304,6.304   c0,2.637-2.138,4.774-4.774,4.774c-2.637,0-4.774-2.138-4.774-4.774c0-8.741,7.111-15.852,15.852-15.852   c8.741,0,15.852,7.111,15.852,15.852c0,8.442-3.687,16.422-10.116,21.894l-5.065,4.311c-3.194,2.718-5.407,6.334-6.394,10.32   h16.801c2.637,0,4.774,2.138,4.774,4.774S443.633,210.968,440.997,210.968z"/>
</g>
<path style="fill:#CCCCCC;" d="M309.768,377.895v10.563c0,8.104-6.564,14.668-14.668,14.668h-78.212  c-8.104,0-14.668-6.564-14.668-14.668v-10.563H309.768z"/>
<g>
</g>
<g>
</g>
<g>
</g>
<g>
</g>
<g>
</g>
<g>
</g>
<g>
</g>
<g>
</g>
<g>
</g>
<g>
</g>
<g>
</g>
<g>
</g>
<g>
</g>
<g>
</g>
<g>
</g>
</svg>